<svg width="359" height="408" viewBox="0 0 359 408" fill="none" xmlns="http://www.w3.org/2000/svg">
<path d="M0 84.7753H73.873C73.9487 84.7753 74.0212 84.8054 74.0748 84.8589L92.4803 103.264C92.5338 103.318 92.6064 103.348 92.6821 103.348H194.595C194.671 103.348 194.744 103.378 194.797 103.432L208.11 116.745C208.164 116.798 208.236 116.828 208.312 116.828H263.794C263.869 116.828 263.942 116.798 263.995 116.745L277.309 103.432C277.362 103.378 277.435 103.348 277.51 103.348H323.524M296.564 131.207H188.242C188.166 131.207 188.093 131.237 188.04 131.291L160.048 159.282C159.995 159.336 159.922 159.366 159.847 159.366H137.616C137.54 159.366 137.468 159.336 137.414 159.282L121.705 143.573C121.651 143.519 121.579 143.489 121.503 143.489H0M0 167.753H115.811C115.887 167.753 115.96 167.783 116.013 167.837L137.414 189.238C137.468 189.292 137.54 189.322 137.616 189.322H181.115C181.191 189.322 181.264 189.292 181.317 189.238L211.106 159.449C211.159 159.396 211.232 159.366 211.308 159.366H296.446C296.521 159.366 296.594 159.396 296.647 159.449L315.652 178.454C315.706 178.507 315.778 178.537 315.854 178.537H355.877M263.912 195.013H229.281C229.206 195.013 229.133 195.043 229.079 195.097L199.89 224.286C199.836 224.34 199.764 224.37 199.688 224.37H155.771M273.498 178.537H218.797C218.721 178.537 218.648 178.568 218.595 178.621L188.207 209.009C188.153 209.062 188.081 209.093 188.005 209.093H121.739C121.664 209.093 121.591 209.062 121.538 209.009L97.4404 184.912C97.3869 184.858 97.3143 184.828 97.2387 184.828H0M0 56.0176H103.529C103.605 56.0176 103.678 56.0477 103.731 56.1012L119.441 71.8107C119.494 71.8642 119.567 71.8943 119.642 71.8943H218.678M277.392 36.5463H140.312C140.236 36.5463 140.164 36.5763 140.11 36.6298L128.595 48.1455C128.541 48.199 128.469 48.2291 128.393 48.2291H0M0 36.5463H115.811C115.887 36.5463 115.96 36.5162 116.013 36.4627L137.414 15.0615C137.468 15.008 137.54 14.978 137.616 14.978H236.053M263.912 2.39648H133.123C133.047 2.39648 132.974 2.42654 132.921 2.48005L116.013 19.3878C115.96 19.4413 115.887 19.4714 115.811 19.4714H0M70.696 2.39648H0M0 393.621H105.626C105.702 393.621 105.775 393.591 105.828 393.538L140.41 358.956C140.463 358.902 140.536 358.872 140.612 358.872H224.67M268.405 341.498H137.616C137.54 341.498 137.468 341.528 137.414 341.581L105.828 373.168C105.775 373.221 105.702 373.251 105.626 373.251H0M0 408H239.648M155.771 393.621H277.392M173.145 373.251H303.454M233.357 327.718H126.532C126.457 327.718 126.384 327.748 126.331 327.802L95.2599 358.872M299.559 267.207H224.788C224.712 267.207 224.64 267.237 224.586 267.291L194.797 297.079C194.744 297.133 194.671 297.163 194.595 297.163H119.642C119.567 297.163 119.494 297.193 119.441 297.247L92.6474 324.04C92.5939 324.093 92.5214 324.123 92.4457 324.123H0M323.524 289.974H233.475C233.399 289.974 233.327 290.004 233.273 290.057L211.273 312.057C211.219 312.111 211.147 312.141 211.071 312.141H126.532C126.457 312.141 126.384 312.171 126.331 312.225L92.6474 345.908C92.5939 345.961 92.5214 345.991 92.4457 345.991H0M0 267.207H89.7497C89.8253 267.207 89.8979 267.237 89.9514 267.291L105.661 283C105.714 283.054 105.787 283.084 105.863 283.084H146.784M199.806 263.313H116.048C115.972 263.313 115.899 263.283 115.846 263.229L100.736 248.119C100.682 248.065 100.609 248.035 100.534 248.035H0M257.621 248.035H126.414M0 238.449H218.56C218.636 238.449 218.708 238.419 218.762 238.366L242.26 214.868C242.314 214.814 242.386 214.784 242.462 214.784H296.564M0 202.802H38.2254C38.3011 202.802 38.3737 202.832 38.4272 202.885L53.8371 218.295C53.8906 218.349 53.9632 218.379 54.0389 218.379H95.2599" stroke="url(#paint0_linear_182_2026)" stroke-opacity="0.2" stroke-width="0.570589" stroke-linecap="round"/>
<circle cx="276.793" cy="35.9473" r="2.39648" fill="#FFF4F9"/>
<circle cx="235.454" cy="14.9775" r="2.39648" fill="#FFF4F9"/>
<circle cx="218.678" cy="71.8945" r="2.39648" fill="#FFF4F9"/>
<circle cx="322.925" cy="103.049" r="2.39648" fill="#FFF4F9"/>
<circle cx="295.965" cy="130.608" r="2.39648" fill="#FFF4F9"/>
<circle cx="355.877" cy="178.537" r="2.39648" fill="#FFF4F9"/>
<circle cx="303.154" cy="373.251" r="2.39648" fill="#FFF4F9"/>
<circle cx="277.392" cy="393.621" r="2.39648" fill="#FFF4F9"/>
<circle cx="269.604" cy="341.498" r="2.39648" fill="#FFF4F9"/>
<circle cx="224.67" cy="358.872" r="2.39648" fill="#FFF4F9"/>
<circle cx="263.612" cy="2.39648" r="2.39648" fill="#FFF4F9"/>
<path d="M0 36.5458H116.111C116.187 36.5458 116.259 36.5158 116.313 36.4623L134.119 18.6558C134.173 18.6023 134.245 18.5723 134.321 18.5723H195.912" stroke="#DC0162" stroke-width="0.570589" stroke-linecap="round"/>
<circle cx="195.912" cy="18.5723" r="2.39648" fill="#DC0162"/>
<path d="M0 73.093H39.7232C39.7989 73.093 39.8715 73.0629 39.925 73.0094L51.4407 61.4937C51.4942 61.4402 51.5667 61.4102 51.6424 61.4102H82.5602C82.6359 61.4102 82.7085 61.4402 82.762 61.4937L108.956 87.6878C109.01 87.7413 109.082 87.7714 109.158 87.7714H259.418" stroke="#FFF2F8" stroke-width="0.570589" stroke-linecap="round"/>
<circle cx="259.418" cy="87.4717" r="2.39648" fill="#FFF2F8"/>
<defs>
<linearGradient id="paint0_linear_182_2026" x1="128.211" y1="157.568" x2="-1.88686e-06" y2="157.568" gradientUnits="userSpaceOnUse">
<stop stop-color="#FFA9CF"/>
<stop offset="1" stop-color="#FFA9CF" stop-opacity="0"/>
</linearGradient>
</defs>
</svg>
