<svg width="598" height="684" viewBox="0 0 598 684" fill="none" xmlns="http://www.w3.org/2000/svg">
<path d="M0 141.5H123.303C123.429 141.5 123.55 141.55 123.639 141.639L154.361 172.361C154.45 172.45 154.571 172.5 154.697 172.5H324.803C324.929 172.5 325.05 172.55 325.139 172.639L347.361 194.861C347.45 194.95 347.571 195 347.697 195H440.303C440.429 195 440.55 194.95 440.639 194.861L462.861 172.639C462.95 172.55 463.071 172.5 463.197 172.5H540M495 219H314.197C314.071 219 313.95 219.05 313.861 219.139L267.139 265.861C267.05 265.95 266.929 266 266.803 266H229.697C229.571 266 229.45 265.95 229.361 265.861L203.139 239.639C203.05 239.55 202.929 239.5 202.803 239.5H0M0 280H193.303C193.429 280 193.55 280.05 193.639 280.139L229.361 315.861C229.45 315.95 229.571 316 229.697 316H302.303C302.429 316 302.55 315.95 302.639 315.861L352.361 266.139C352.45 266.05 352.571 266 352.697 266H494.803C494.929 266 495.05 266.05 495.139 266.139L526.861 297.861C526.95 297.95 527.071 298 527.197 298H594M440.5 325.5H382.697C382.571 325.5 382.45 325.55 382.361 325.639L333.639 374.361C333.55 374.45 333.429 374.5 333.303 374.5H260M456.5 298H365.197C365.071 298 364.95 298.05 364.861 298.139L314.139 348.861C314.05 348.95 313.929 349 313.803 349H203.197C203.071 349 202.95 348.95 202.861 348.861L162.639 308.639C162.55 308.55 162.429 308.5 162.303 308.5H0M0 93.5H172.803C172.929 93.5 173.05 93.5502 173.139 93.6395L199.361 119.861C199.45 119.95 199.571 120 199.697 120H365M463 61H234.197C234.071 61 233.95 61.0502 233.861 61.1395L214.639 80.3605C214.55 80.4498 214.429 80.5 214.303 80.5H0M0 61H193.303C193.429 61 193.55 60.9498 193.639 60.8605L229.361 25.1395C229.45 25.0502 229.571 25 229.697 25H394M440.5 4H222.197C222.071 4 221.95 4.05017 221.861 4.13947L193.639 32.3605C193.55 32.4498 193.429 32.5 193.303 32.5H0M118 4H0M0 657H176.303C176.429 657 176.55 656.95 176.639 656.861L234.361 599.139C234.45 599.05 234.571 599 234.697 599H375M448 570H229.697C229.571 570 229.45 570.05 229.361 570.139L176.639 622.861C176.55 622.95 176.429 623 176.303 623H0M0 681H400M260 657H463M289 623H506.5M389.5 547H211.197C211.071 547 210.95 547.05 210.861 547.139L159 599M500 446H375.197C375.071 446 374.95 446.05 374.861 446.139L325.139 495.861C325.05 495.95 324.929 496 324.803 496H199.697C199.571 496 199.45 496.05 199.361 496.139L154.639 540.861C154.55 540.95 154.429 541 154.303 541H0M540 484H389.697C389.571 484 389.45 484.05 389.361 484.139L352.639 520.861C352.55 520.95 352.429 521 352.303 521H211.197C211.071 521 210.95 521.05 210.861 521.139L154.639 577.361C154.55 577.45 154.429 577.5 154.303 577.5H0M0 446H149.803C149.929 446 150.05 446.05 150.139 446.139L176.361 472.361C176.45 472.45 176.571 472.5 176.697 472.5H245M333.5 439.5H193.697C193.571 439.5 193.45 439.45 193.361 439.361L168.139 414.139C168.05 414.05 167.929 414 167.803 414H0M430 414H211M0 398H364.803C364.929 398 365.05 397.95 365.139 397.861L404.361 358.639C404.45 358.55 404.571 358.5 404.697 358.5H495M0 338.5H63.8028C63.9291 338.5 64.0502 338.55 64.1395 338.639L89.8605 364.361C89.9498 364.45 90.071 364.5 90.1972 364.5H159" stroke="url(#paint0_linear_98_413)" stroke-opacity="0.2" stroke-width="0.952381" stroke-linecap="round"/>
<circle cx="462" cy="60" r="4" fill="##9F9F9F"/>
<circle cx="393" cy="25" r="4" fill="##9F9F9F"/>
<circle cx="365" cy="120" r="4" fill="##9F9F9F"/>
<circle cx="539" cy="172" r="4" fill="##9F9F9F"/>
<circle cx="494" cy="218" r="4" fill="##9F9F9F"/>
<circle cx="594" cy="298" r="4" fill="##9F9F9F"/>
<circle cx="506" cy="623" r="4" fill="##9F9F9F"/>
<circle cx="463" cy="657" r="4" fill="##9F9F9F"/>
<circle cx="450" cy="570" r="4" fill="##9F9F9F"/>
<circle cx="375" cy="599" r="4" fill="##9F9F9F"/>
<circle cx="440" cy="4" r="4" fill="##9F9F9F"/>
<path d="M0 61H193.803C193.929 61 194.05 60.9498 194.139 60.8605L223.861 31.1395C223.95 31.0502 224.071 31 224.197 31H327" stroke="#777" stroke-width="0.952381" stroke-linecap="round"/>
<circle cx="327" cy="31" r="4" fill="#777"/>
<path d="M0 122H66.3028C66.4291 122 66.5502 121.95 66.6395 121.861L85.8605 102.639C85.9498 102.55 86.071 102.5 86.1972 102.5H137.803C137.929 102.5 138.05 102.55 138.139 102.639L181.861 146.361C181.95 146.45 182.071 146.5 182.197 146.5H433" stroke="#777" stroke-width="0.952381" stroke-linecap="round"/>
<circle cx="433" cy="146" r="4" fill="#777"/>
<path d="M0 680.5H407.5" stroke="#777" stroke-width="0.952381" stroke-linecap="round"/>
<circle cx="407" cy="680" r="4" fill="#777"/>
<path d="M0 639H176.303C176.429 639 176.55 638.95 176.639 638.861L228.361 587.139C228.45 587.05 228.571 587 228.697 587H286.5M0 577H150.803C150.929 577 151.05 577.05 151.139 577.139L171.861 597.861C171.95 597.95 172.071 598 172.197 598H195.803C195.929 598 196.05 597.95 196.139 597.861L228.361 565.639C228.45 565.55 228.571 565.5 228.697 565.5H430.5M0 503.5H176.303C176.429 503.5 176.55 503.55 176.639 503.639L208.361 535.361C208.45 535.45 208.571 535.5 208.697 535.5H430.5" stroke="#777" stroke-width="0.952381" stroke-linecap="round"/>
<circle cx="287" cy="587" r="4" fill="#777"/>
<circle cx="431" cy="535" r="4" fill="#777"/>
<circle cx="431" cy="565" r="4" fill="#777"/>
<defs>
<linearGradient id="paint0_linear_98_413" x1="214" y1="263" x2="-3.14939e-06" y2="263" gradientUnits="userSpaceOnUse">
<stop stop-color="#777"/>
<stop offset="1" stop-color="#777" stop-opacity="0"/>
</linearGradient>
</defs>
</svg>
