<svg width="1440" height="696" viewBox="0 0 1440 696" fill="none" xmlns="http://www.w3.org/2000/svg">
<g clip-path="url(#clip0_443_5393)">
<path d="M1440 149.5H1316.7C1316.57 149.5 1316.45 149.55 1316.36 149.639L1285.64 180.361C1285.55 180.45 1285.43 180.5 1285.3 180.5H1115.2C1115.07 180.5 1114.95 180.55 1114.86 180.639L1092.64 202.861C1092.55 202.95 1092.43 203 1092.3 203H999.697C999.571 203 999.45 202.95 999.361 202.861L977.139 180.639C977.05 180.55 976.929 180.5 976.803 180.5H900M945 227H1125.8C1125.93 227 1126.05 227.05 1126.14 227.139L1172.86 273.861C1172.95 273.95 1173.07 274 1173.2 274H1210.3C1210.43 274 1210.55 273.95 1210.64 273.861L1236.86 247.639C1236.95 247.55 1237.07 247.5 1237.2 247.5H1440M1440 288H1246.7C1246.57 288 1246.45 288.05 1246.36 288.139L1210.64 323.861C1210.55 323.95 1210.43 324 1210.3 324H1137.7C1137.57 324 1137.45 323.95 1137.36 323.861L1087.64 274.139C1087.55 274.05 1087.43 274 1087.3 274H945.197C945.071 274 944.95 274.05 944.861 274.139L913.139 305.861C913.05 305.95 912.929 306 912.803 306H846M999.5 333.5H1057.3C1057.43 333.5 1057.55 333.55 1057.64 333.639L1106.36 382.361C1106.45 382.45 1106.57 382.5 1106.7 382.5H1180M983.5 306H1074.8C1074.93 306 1075.05 306.05 1075.14 306.139L1125.86 356.861C1125.95 356.95 1126.07 357 1126.2 357H1236.8C1236.93 357 1237.05 356.95 1237.14 356.861L1277.36 316.639C1277.45 316.55 1277.57 316.5 1277.7 316.5H1440M1440 101.5H1267.2C1267.07 101.5 1266.95 101.55 1266.86 101.639L1240.64 127.861C1240.55 127.95 1240.43 128 1240.3 128H1075M977 69H1205.8C1205.93 69 1206.05 69.0502 1206.14 69.1395L1225.36 88.3605C1225.45 88.4498 1225.57 88.5 1225.7 88.5H1440M1440 69H1246.7C1246.57 69 1246.45 68.9498 1246.36 68.8605L1210.64 33.1395C1210.55 33.0502 1210.43 33 1210.3 33H1046M999.5 12H1217.8C1217.93 12 1218.05 12.0502 1218.14 12.1395L1246.36 40.3605C1246.45 40.4498 1246.57 40.5 1246.7 40.5H1440M1322 12H1440M1440 665H1263.7C1263.57 665 1263.45 664.95 1263.36 664.861L1205.64 607.139C1205.55 607.05 1205.43 607 1205.3 607H1065M992 578H1210.3C1210.43 578 1210.55 578.05 1210.64 578.139L1263.36 630.861C1263.45 630.95 1263.57 631 1263.7 631H1440M1440 689H1040M1180 665H977M1151 631H933.5M1050.5 555H1228.8C1228.93 555 1229.05 555.05 1229.14 555.139L1281 607M940 454H1064.8C1064.93 454 1065.05 454.05 1065.14 454.139L1114.86 503.861C1114.95 503.95 1115.07 504 1115.2 504H1240.3C1240.43 504 1240.55 504.05 1240.64 504.139L1285.36 548.861C1285.45 548.95 1285.57 549 1285.7 549H1440M900 492H1050.3C1050.43 492 1050.55 492.05 1050.64 492.139L1087.36 528.861C1087.45 528.95 1087.57 529 1087.7 529H1228.8C1228.93 529 1229.05 529.05 1229.14 529.139L1285.36 585.361C1285.45 585.45 1285.57 585.5 1285.7 585.5H1440M1440 454H1290.2C1290.07 454 1289.95 454.05 1289.86 454.139L1263.64 480.361C1263.55 480.45 1263.43 480.5 1263.3 480.5H1195M1106.5 447.5H1246.3C1246.43 447.5 1246.55 447.45 1246.64 447.361L1271.86 422.139C1271.95 422.05 1272.07 422 1272.2 422H1440M1010 422H1229M1440 406H1075.2C1075.07 406 1074.95 405.95 1074.86 405.861L1035.64 366.639C1035.55 366.55 1035.43 366.5 1035.3 366.5H945M1440 346.5H1376.2C1376.07 346.5 1375.95 346.55 1375.86 346.639L1350.14 372.361C1350.05 372.45 1349.93 372.5 1349.8 372.5H1281" stroke="url(#paint0_linear_443_5393)" stroke-opacity="0.2" stroke-width="0.952381" stroke-linecap="round"/>
<circle cx="4" cy="4" r="4" transform="matrix(-1 0 0 1 982 64)" fill="#FFF4F9"/>
<circle cx="4" cy="4" r="4" transform="matrix(-1 0 0 1 1051 29)" fill="#FFF4F9"/>
<circle cx="4" cy="4" r="4" transform="matrix(-1 0 0 1 1079 124)" fill="#FFF4F9"/>
<circle cx="4" cy="4" r="4" transform="matrix(-1 0 0 1 905 176)" fill="#FFF4F9"/>
<circle cx="4" cy="4" r="4" transform="matrix(-1 0 0 1 950 222)" fill="#FFF4F9"/>
<circle cx="4" cy="4" r="4" transform="matrix(-1 0 0 1 850 302)" fill="#FFF4F9"/>
<circle cx="4" cy="4" r="4" transform="matrix(-1 0 0 1 938 627)" fill="#FFF4F9"/>
<circle cx="4" cy="4" r="4" transform="matrix(-1 0 0 1 981 661)" fill="#FFF4F9"/>
<circle cx="4" cy="4" r="4" transform="matrix(-1 0 0 1 994 574)" fill="#FFF4F9"/>
<circle cx="4" cy="4" r="4" transform="matrix(-1 0 0 1 1069 603)" fill="#FFF4F9"/>
<circle cx="4" cy="4" r="4" transform="matrix(-1 0 0 1 1004 8)" fill="#FFF4F9"/>
<path d="M1440 69H1246.2C1246.07 69 1245.95 68.9498 1245.86 68.8605L1216.14 39.1395C1216.05 39.0502 1215.93 39 1215.8 39H1113" stroke="#DC0162" stroke-width="0.952381" stroke-linecap="round"/>
<circle cx="4" cy="4" r="4" transform="matrix(-1 0 0 1 1117 35)" fill="#DC0162"/>
<path d="M1440 130H1373.7C1373.57 130 1373.45 129.95 1373.36 129.861L1354.14 110.639C1354.05 110.55 1353.93 110.5 1353.8 110.5H1302.2C1302.07 110.5 1301.95 110.55 1301.86 110.639L1258.14 154.361C1258.05 154.45 1257.93 154.5 1257.8 154.5H1007" stroke="#FFF2F8" stroke-width="0.952381" stroke-linecap="round"/>
<circle cx="4" cy="4" r="4" transform="matrix(-1 0 0 1 1011 150)" fill="#FFF2F8"/>
<path d="M0 149.5H123.303C123.429 149.5 123.55 149.55 123.639 149.639L154.361 180.361C154.45 180.45 154.571 180.5 154.697 180.5H324.803C324.929 180.5 325.05 180.55 325.139 180.639L347.361 202.861C347.45 202.95 347.571 203 347.697 203H440.303C440.429 203 440.55 202.95 440.639 202.861L462.861 180.639C462.95 180.55 463.071 180.5 463.197 180.5H540M495 227H314.197C314.071 227 313.95 227.05 313.861 227.139L267.139 273.861C267.05 273.95 266.929 274 266.803 274H229.697C229.571 274 229.45 273.95 229.361 273.861L203.139 247.639C203.05 247.55 202.929 247.5 202.803 247.5H0M0 288H193.303C193.429 288 193.55 288.05 193.639 288.139L229.361 323.861C229.45 323.95 229.571 324 229.697 324H302.303C302.429 324 302.55 323.95 302.639 323.861L352.361 274.139C352.45 274.05 352.571 274 352.697 274H494.803C494.929 274 495.05 274.05 495.139 274.139L526.861 305.861C526.95 305.95 527.071 306 527.197 306H594M440.5 333.5H382.697C382.571 333.5 382.45 333.55 382.361 333.639L333.639 382.361C333.55 382.45 333.429 382.5 333.303 382.5H260M456.5 306H365.197C365.071 306 364.95 306.05 364.861 306.139L314.139 356.861C314.05 356.95 313.929 357 313.803 357H203.197C203.071 357 202.95 356.95 202.861 356.861L162.639 316.639C162.55 316.55 162.429 316.5 162.303 316.5H0M0 101.5H172.803C172.929 101.5 173.05 101.55 173.139 101.639L199.361 127.861C199.45 127.95 199.571 128 199.697 128H365M463 69H234.197C234.071 69 233.95 69.0502 233.861 69.1395L214.639 88.3605C214.55 88.4498 214.429 88.5 214.303 88.5H0M0 69H193.303C193.429 69 193.55 68.9498 193.639 68.8605L229.361 33.1395C229.45 33.0502 229.571 33 229.697 33H394M440.5 12H222.197C222.071 12 221.95 12.0502 221.861 12.1395L193.639 40.3605C193.55 40.4498 193.429 40.5 193.303 40.5H0M118 12H0M0 665H176.303C176.429 665 176.55 664.95 176.639 664.861L234.361 607.139C234.45 607.05 234.571 607 234.697 607H375M448 578H229.697C229.571 578 229.45 578.05 229.361 578.139L176.639 630.861C176.55 630.95 176.429 631 176.303 631H0M0 689H400M260 665H463M289 631H506.5M389.5 555H211.197C211.071 555 210.95 555.05 210.861 555.139L159 607M500 454H375.197C375.071 454 374.95 454.05 374.861 454.139L325.139 503.861C325.05 503.95 324.929 504 324.803 504H199.697C199.571 504 199.45 504.05 199.361 504.139L154.639 548.861C154.55 548.95 154.429 549 154.303 549H0M540 492H389.697C389.571 492 389.45 492.05 389.361 492.139L352.639 528.861C352.55 528.95 352.429 529 352.303 529H211.197C211.071 529 210.95 529.05 210.861 529.139L154.639 585.361C154.55 585.45 154.429 585.5 154.303 585.5H0M0 454H149.803C149.929 454 150.05 454.05 150.139 454.139L176.361 480.361C176.45 480.45 176.571 480.5 176.697 480.5H245M333.5 447.5H193.697C193.571 447.5 193.45 447.45 193.361 447.361L168.139 422.139C168.05 422.05 167.929 422 167.803 422H0M430 422H211M0 406H364.803C364.929 406 365.05 405.95 365.139 405.861L404.361 366.639C404.45 366.55 404.571 366.5 404.697 366.5H495M0 346.5H63.8028C63.9291 346.5 64.0502 346.55 64.1395 346.639L89.8605 372.361C89.9498 372.45 90.071 372.5 90.1972 372.5H159" stroke="url(#paint1_linear_443_5393)" stroke-opacity="0.2" stroke-width="0.952381" stroke-linecap="round"/>
<circle cx="462" cy="68" r="4" fill="#FFF4F9"/>
<circle cx="393" cy="33" r="4" fill="#FFF4F9"/>
<circle cx="365" cy="128" r="4" fill="#FFF4F9"/>
<circle cx="539" cy="180" r="4" fill="#FFF4F9"/>
<circle cx="494" cy="226" r="4" fill="#FFF4F9"/>
<circle cx="594" cy="306" r="4" fill="#FFF4F9"/>
<circle cx="506" cy="631" r="4" fill="#FFF4F9"/>
<circle cx="463" cy="665" r="4" fill="#FFF4F9"/>
<circle cx="450" cy="578" r="4" fill="#FFF4F9"/>
<circle cx="375" cy="607" r="4" fill="#FFF4F9"/>
<circle cx="440" cy="12" r="4" fill="#FFF4F9"/>
<path d="M0 69H193.803C193.929 69 194.05 68.9498 194.139 68.8605L223.861 39.1395C223.95 39.0502 224.071 39 224.197 39H327" stroke="#DC0162" stroke-width="0.952381" stroke-linecap="round"/>
<circle cx="327" cy="39" r="4" fill="#DC0162"/>
<path d="M0 130H66.3028C66.4291 130 66.5502 129.95 66.6395 129.861L85.8605 110.639C85.9498 110.55 86.071 110.5 86.1972 110.5H137.803C137.929 110.5 138.05 110.55 138.139 110.639L181.861 154.361C181.95 154.45 182.071 154.5 182.197 154.5H433" stroke="#FFEEF5" stroke-width="0.952381" stroke-linecap="round"/>
<circle cx="433" cy="154" r="4" fill="#FFEEF5"/>
</g>
<defs>
<linearGradient id="paint0_linear_443_5393" x1="1226" y1="271" x2="1440" y2="271" gradientUnits="userSpaceOnUse">
<stop stop-color="#FFA9CF"/>
<stop offset="1" stop-color="#FFA9CF" stop-opacity="0"/>
</linearGradient>
<linearGradient id="paint1_linear_443_5393" x1="214" y1="271" x2="-3.14939e-06" y2="271" gradientUnits="userSpaceOnUse">
<stop stop-color="#FFA9CF"/>
<stop offset="1" stop-color="#FFA9CF" stop-opacity="0"/>
</linearGradient>
<clipPath id="clip0_443_5393">
<rect width="1440" height="696" fill="white"/>
</clipPath>
</defs>
</svg>
