<svg width="453" height="335" viewBox="0 0 453 335" fill="none" xmlns="http://www.w3.org/2000/svg">
<path d="M0 107.19H93.4049C93.5006 107.19 93.5923 107.228 93.66 107.296L116.932 130.568C117 130.635 117.091 130.673 117.187 130.673H246.046C246.142 130.673 246.234 130.711 246.301 130.779L263.134 147.612C263.202 147.68 263.294 147.718 263.389 147.718H333.54C333.636 147.718 333.728 147.68 333.795 147.612L350.628 130.779C350.696 130.712 350.788 130.673 350.884 130.673H409.064M374.975 165.898H238.012C237.917 165.898 237.825 165.936 237.757 166.004L202.365 201.396C202.297 201.464 202.205 201.502 202.11 201.502H174.001C173.906 201.502 173.814 201.464 173.746 201.396L153.883 181.533C153.816 181.466 153.724 181.428 153.628 181.428H0M0 212.107H146.432C146.527 212.107 146.619 212.145 146.687 212.213L173.746 239.273C173.814 239.34 173.906 239.378 174.001 239.378H229.002C229.098 239.378 229.189 239.34 229.257 239.273L266.922 201.608C266.99 201.54 267.081 201.502 267.177 201.502H374.825C374.921 201.502 375.013 201.54 375.081 201.608L399.11 225.637C399.178 225.705 399.269 225.743 399.365 225.743H449.97M333.69 246.575H289.903C289.807 246.575 289.715 246.613 289.648 246.68L252.74 283.588C252.673 283.656 252.581 283.694 252.485 283.694H196.957M345.81 225.743H276.646C276.55 225.743 276.459 225.781 276.391 225.849L237.969 264.271C237.901 264.339 237.809 264.377 237.713 264.377H153.927C153.831 264.377 153.74 264.339 153.672 264.271L123.203 233.803C123.136 233.735 123.044 233.697 122.948 233.697H0M0 70.829H130.902C130.998 70.829 131.09 70.867 131.157 70.9347L151.021 90.7978C151.088 90.8654 151.18 90.9034 151.276 90.9034H276.497M350.734 46.2094H177.41C177.315 46.2094 177.223 46.2475 177.155 46.3151L162.595 60.8755C162.527 60.9432 162.435 60.9812 162.34 60.9812H0M0 46.2094H146.432C146.527 46.2094 146.619 46.1714 146.687 46.1038L173.746 19.0442C173.814 18.9765 173.906 18.9385 174.001 18.9385H298.465M333.69 3.03052H168.32C168.224 3.03052 168.133 3.06852 168.065 3.13617L146.687 24.5143C146.619 24.582 146.527 24.62 146.432 24.62H0M89.388 3.03052H0M0 497.694H133.554C133.649 497.694 133.741 497.656 133.809 497.589L177.534 453.864C177.602 453.796 177.693 453.758 177.789 453.758H284.072M339.371 431.79H174.001C173.906 431.79 173.814 431.828 173.746 431.895L133.809 471.833C133.741 471.901 133.649 471.939 133.554 471.939H0M0 515.875H303.01M196.957 497.694H350.734M218.925 471.939H383.686M295.056 414.367H159.987C159.892 414.367 159.8 414.405 159.732 414.472L120.446 453.758M378.763 337.857H284.221C284.126 337.857 284.034 337.895 283.966 337.962L246.301 375.627C246.234 375.695 246.142 375.733 246.046 375.733H151.276C151.18 375.733 151.088 375.771 151.021 375.839L117.143 409.716C117.076 409.783 116.984 409.821 116.888 409.821H0M409.064 366.643H295.205C295.11 366.643 295.018 366.681 294.95 366.748L267.133 394.565C267.066 394.633 266.974 394.671 266.878 394.671H159.987C159.892 394.671 159.8 394.709 159.732 394.777L117.143 437.366C117.076 437.433 116.984 437.471 116.888 437.471H0M0 337.857H113.479C113.575 337.857 113.667 337.895 113.734 337.962L133.598 357.825C133.665 357.893 133.757 357.931 133.853 357.931H185.594M252.635 332.933H146.731C146.635 332.933 146.543 332.895 146.475 332.827L127.37 313.721C127.302 313.654 127.21 313.616 127.115 313.616H0M325.736 313.616H159.838M0 301.495H276.347C276.443 301.495 276.535 301.457 276.602 301.39L306.313 271.679C306.381 271.611 306.473 271.573 306.568 271.573H374.975M0 256.423H48.3322C48.4279 256.423 48.5196 256.461 48.5873 256.528L68.0716 276.013C68.1392 276.08 68.231 276.118 68.3267 276.118H120.446" stroke="url(#paint0_linear_1167_7286)" stroke-opacity="0.2" stroke-width="0.721452" stroke-linecap="round"/>
<circle cx="349.977" cy="45.4515" r="3.0301" fill="#AA296A"/>
<circle cx="297.707" cy="18.9381" r="3.0301" fill="#AA296A"/>
<circle cx="276.497" cy="90.9034" r="3.0301" fill="#AA296A"/>
<circle cx="408.306" cy="130.295" r="3.0301" fill="#AA296A"/>
<circle cx="374.217" cy="165.141" r="3.0301" fill="#AA296A"/>
<circle cx="449.97" cy="225.743" r="3.0301" fill="#AA296A"/>
<circle cx="333.311" cy="3.0301" r="3.0301" fill="#AA296A"/>
<path d="M0 46.2094H146.81C146.906 46.2094 146.998 46.1714 147.066 46.1037L169.58 23.5893C169.648 23.5216 169.739 23.4836 169.835 23.4836H247.711" stroke="#E9006C" stroke-width="0.721452" stroke-linecap="round"/>
<circle cx="247.711" cy="23.4832" r="3.0301" fill="#E9006C"/>
<path d="M0 92.4182H50.226C50.3217 92.4182 50.4134 92.3802 50.4811 92.3126L65.0415 77.7521C65.1092 77.6845 65.2009 77.6465 65.2966 77.6465H104.389C104.485 77.6465 104.576 77.6845 104.644 77.7521L137.764 110.872C137.832 110.94 137.923 110.978 138.019 110.978H328.008" stroke="#E9006C" stroke-width="0.721452" stroke-linecap="round"/>
<circle cx="328.008" cy="110.599" r="3.0301" fill="#E9006C"/>
<defs>
<linearGradient id="paint0_linear_1167_7286" x1="162.11" y1="199.23" x2="-2.38574e-06" y2="199.23" gradientUnits="userSpaceOnUse">
<stop stop-color="#FF0071"/>
<stop offset="1" stop-color="#FF0071" stop-opacity="0"/>
</linearGradient>
</defs>
</svg>
