<svg width="453" height="335" viewBox="0 0 453 335" fill="none" xmlns="http://www.w3.org/2000/svg">
<path d="M453 107.19H359.595C359.499 107.19 359.408 107.228 359.34 107.296L336.068 130.568C336 130.635 335.909 130.673 335.813 130.673H206.954C206.858 130.673 206.766 130.711 206.699 130.779L189.866 147.612C189.798 147.68 189.706 147.718 189.611 147.718H119.46C119.364 147.718 119.272 147.68 119.205 147.612L102.372 130.779C102.304 130.712 102.212 130.673 102.116 130.673H43.9365M78.0251 165.898H214.988C215.083 165.898 215.175 165.936 215.243 166.004L250.635 201.396C250.703 201.464 250.795 201.502 250.89 201.502H278.999C279.094 201.502 279.186 201.464 279.254 201.396L299.117 181.533C299.184 181.466 299.276 181.428 299.372 181.428H453M453 212.107H306.568C306.473 212.107 306.381 212.145 306.313 212.213L279.254 239.273C279.186 239.34 279.094 239.378 278.999 239.378H223.998C223.902 239.378 223.811 239.34 223.743 239.273L186.078 201.608C186.01 201.54 185.919 201.502 185.823 201.502H78.1745C78.0789 201.502 77.9871 201.54 77.9195 201.608L53.89 225.637C53.8223 225.705 53.7306 225.743 53.6349 225.743H3.03013M119.31 246.575H163.097C163.193 246.575 163.285 246.613 163.352 246.68L200.26 283.588C200.327 283.656 200.419 283.694 200.515 283.694H256.043M107.19 225.743H176.354C176.45 225.743 176.541 225.781 176.609 225.849L215.031 264.271C215.099 264.339 215.191 264.377 215.287 264.377H299.073C299.169 264.377 299.26 264.339 299.328 264.271L329.797 233.803C329.864 233.735 329.956 233.697 330.052 233.697H453M453 70.829H322.098C322.002 70.829 321.91 70.867 321.843 70.9347L301.979 90.7978C301.912 90.8654 301.82 90.9034 301.724 90.9034H176.503M102.266 46.2094H275.59C275.685 46.2094 275.777 46.2475 275.845 46.3151L290.405 60.8755C290.473 60.9432 290.565 60.9812 290.66 60.9812H453M453 46.2094H306.568C306.473 46.2094 306.381 46.1714 306.313 46.1038L279.254 19.0442C279.186 18.9765 279.094 18.9385 278.999 18.9385H154.535M119.31 3.03052H284.68C284.776 3.03052 284.867 3.06852 284.935 3.13617L306.313 24.5143C306.381 24.582 306.473 24.62 306.568 24.62H453M363.612 3.03052H453M453 497.694H319.446C319.351 497.694 319.259 497.656 319.191 497.589L275.466 453.864C275.398 453.796 275.307 453.758 275.211 453.758H168.928M113.629 431.79H278.999C279.094 431.79 279.186 431.828 279.254 431.895L319.191 471.833C319.259 471.901 319.351 471.939 319.446 471.939H453M453 515.875H149.99M256.043 497.694H102.266M234.075 471.939H69.3136M157.944 414.367H293.013C293.108 414.367 293.2 414.405 293.268 414.472L332.554 453.758M74.2375 337.857H168.779C168.874 337.857 168.966 337.895 169.034 337.962L206.699 375.627C206.766 375.695 206.858 375.733 206.954 375.733H301.724C301.82 375.733 301.912 375.771 301.979 375.839L335.857 409.716C335.924 409.783 336.016 409.821 336.112 409.821H453M43.9365 366.643H157.795C157.89 366.643 157.982 366.681 158.05 366.748L185.867 394.565C185.934 394.633 186.026 394.671 186.122 394.671H293.013C293.108 394.671 293.2 394.709 293.268 394.777L335.857 437.366C335.924 437.433 336.016 437.471 336.112 437.471H453M453 337.857H339.521C339.425 337.857 339.333 337.895 339.266 337.962L319.402 357.825C319.335 357.893 319.243 357.931 319.147 357.931H267.406M200.365 332.933H306.269C306.365 332.933 306.457 332.895 306.525 332.827L325.63 313.721C325.698 313.654 325.79 313.616 325.885 313.616H453M127.264 313.616H293.162M453 301.495H176.653C176.557 301.495 176.465 301.457 176.398 301.39L146.687 271.679C146.619 271.611 146.527 271.573 146.432 271.573H78.0251M453 256.423H404.668C404.572 256.423 404.48 256.461 404.413 256.528L384.928 276.013C384.861 276.08 384.769 276.118 384.673 276.118H332.554" stroke="url(#paint0_linear_1167_7263)" stroke-opacity="0.2" stroke-width="0.721452" stroke-linecap="round"/>
<circle cx="3.0301" cy="3.0301" r="3.0301" transform="matrix(-1 0 0 1 106.054 42.4214)" fill="#AA296A"/>
<circle cx="3.0301" cy="3.0301" r="3.0301" transform="matrix(-1 0 0 1 158.323 15.908)" fill="#AA296A"/>
<circle cx="3.0301" cy="3.0301" r="3.0301" transform="matrix(-1 0 0 1 179.533 87.8733)" fill="#AA296A"/>
<circle cx="3.0301" cy="3.0301" r="3.0301" transform="matrix(-1 0 0 1 47.7241 127.264)" fill="#AA296A"/>
<circle cx="3.0301" cy="3.0301" r="3.0301" transform="matrix(-1 0 0 1 81.8127 162.111)" fill="#AA296A"/>
<circle cx="3.0301" cy="3.0301" r="3.0301" transform="matrix(-1 0 0 1 6.06018 222.713)" fill="#AA296A"/>
<circle cx="3.0301" cy="3.0301" r="3.0301" transform="matrix(-1 0 0 1 122.719 0)" fill="#AA296A"/>
<path d="M453 46.2094H306.19C306.094 46.2094 306.002 46.1714 305.934 46.1037L283.42 23.5893C283.352 23.5216 283.261 23.4836 283.165 23.4836H205.289" stroke="#E9006C" stroke-width="0.721452" stroke-linecap="round"/>
<circle cx="3.0301" cy="3.0301" r="3.0301" transform="matrix(-1 0 0 1 208.319 20.4531)" fill="#E9006C"/>
<path d="M453 92.4182H402.774C402.678 92.4182 402.587 92.3802 402.519 92.3126L387.958 77.7521C387.891 77.6845 387.799 77.6465 387.703 77.6465H348.611C348.515 77.6465 348.424 77.6845 348.356 77.7521L315.236 110.872C315.168 110.94 315.077 110.978 314.981 110.978H124.992" stroke="#E9006C" stroke-width="0.721452" stroke-linecap="round"/>
<circle cx="3.0301" cy="3.0301" r="3.0301" transform="matrix(-1 0 0 1 128.022 107.569)" fill="#E9006C"/>
<defs>
<linearGradient id="paint0_linear_1167_7263" x1="290.89" y1="199.23" x2="453" y2="199.23" gradientUnits="userSpaceOnUse">
<stop stop-color="#FF0071"/>
<stop offset="1" stop-color="#FF0071" stop-opacity="0"/>
</linearGradient>
</defs>
</svg>
