<svg width="598" height="678" viewBox="0 0 598 678" fill="none" xmlns="http://www.w3.org/2000/svg">
<g opacity="0.3">
<path d="M598 187.5H474.697C474.571 187.5 474.45 187.55 474.361 187.639L443.639 218.361C443.55 218.45 443.429 218.5 443.303 218.5H273.197C273.071 218.5 272.95 218.55 272.861 218.639L250.639 240.861C250.55 240.95 250.429 241 250.303 241H157.697C157.571 241 157.45 240.95 157.361 240.861L135.139 218.639C135.05 218.55 134.929 218.5 134.803 218.5H58M103 265H283.803C283.929 265 284.05 265.05 284.139 265.139L330.861 311.861C330.95 311.95 331.071 312 331.197 312H368.303C368.429 312 368.55 311.95 368.639 311.861L394.861 285.639C394.95 285.55 395.071 285.5 395.197 285.5H598M598 326H404.697C404.571 326 404.45 326.05 404.361 326.139L368.639 361.861C368.55 361.95 368.429 362 368.303 362H295.697C295.571 362 295.45 361.95 295.361 361.861L245.639 312.139C245.55 312.05 245.429 312 245.303 312H103.197C103.071 312 102.95 312.05 102.861 312.139L71.1395 343.861C71.0502 343.95 70.929 344 70.8028 344H4M157.5 371.5H215.303C215.429 371.5 215.55 371.55 215.639 371.639L264.361 420.361C264.45 420.45 264.571 420.5 264.697 420.5H338M141.5 344H232.803C232.929 344 233.05 344.05 233.139 344.139L283.861 394.861C283.95 394.95 284.071 395 284.197 395H394.803C394.929 395 395.05 394.95 395.139 394.861L435.361 354.639C435.45 354.55 435.571 354.5 435.697 354.5H598M598 139.5H425.197C425.071 139.5 424.95 139.55 424.861 139.639L398.639 165.861C398.55 165.95 398.429 166 398.303 166H233M135 107H363.803C363.929 107 364.05 107.05 364.139 107.139L383.361 126.361C383.45 126.45 383.571 126.5 383.697 126.5H598M598 107H404.697C404.571 107 404.45 106.95 404.361 106.861L368.639 71.1395C368.55 71.0502 368.429 71 368.303 71H204M157.5 50H375.803C375.929 50 376.05 50.0502 376.139 50.1395L404.361 78.3605C404.45 78.4498 404.571 78.5 404.697 78.5H598M480 50H598M598 703H421.697C421.571 703 421.45 702.95 421.361 702.861L363.639 645.139C363.55 645.05 363.429 645 363.303 645H223M150 616H368.303C368.429 616 368.55 616.05 368.639 616.139L421.361 668.861C421.45 668.95 421.571 669 421.697 669H598M598 727H198M338 703H135M309 669H91.5M208.5 593H386.803C386.929 593 387.05 593.05 387.139 593.139L439 645M98 492H222.803C222.929 492 223.05 492.05 223.139 492.139L272.861 541.861C272.95 541.95 273.071 542 273.197 542H398.303C398.429 542 398.55 542.05 398.639 542.139L443.361 586.861C443.45 586.95 443.571 587 443.697 587H598M58 530H208.303C208.429 530 208.55 530.05 208.639 530.139L245.361 566.861C245.45 566.95 245.571 567 245.697 567H386.803C386.929 567 387.05 567.05 387.139 567.139L443.361 623.361C443.45 623.45 443.571 623.5 443.697 623.5H598M598 492H448.197C448.071 492 447.95 492.05 447.861 492.139L421.639 518.361C421.55 518.45 421.429 518.5 421.303 518.5H353M264.5 485.5H404.303C404.429 485.5 404.55 485.45 404.639 485.361L429.861 460.139C429.95 460.05 430.071 460 430.197 460H598M168 460H387M598 444H233.197C233.071 444 232.95 443.95 232.861 443.861L193.639 404.639C193.55 404.55 193.429 404.5 193.303 404.5H103M598 384.5H534.197C534.071 384.5 533.95 384.55 533.861 384.639L508.139 410.361C508.05 410.45 507.929 410.5 507.803 410.5H439" stroke="url(#paint0_linear_255_1628)" stroke-opacity="0.2" stroke-width="0.952381" stroke-linecap="round"/>
<circle cx="4" cy="4" r="4" transform="matrix(-1 0 0 1 140 7)" fill="#AA296A"/>
<circle cx="4" cy="4" r="4" transform="matrix(-1 0 0 1 237 67)" fill="#AA296A"/>
<circle cx="4" cy="4" r="4" transform="matrix(-1 0 0 1 63 119)" fill="#AA296A"/>
<circle cx="4" cy="4" r="4" transform="matrix(-1 0 0 1 108 165)" fill="#AA296A"/>
<circle cx="4" cy="4" r="4" transform="matrix(-1 0 0 1 8 245)" fill="#AA296A"/>
<circle cx="4" cy="4" r="4" transform="matrix(-1 0 0 1 96 570)" fill="#AA296A"/>
<circle cx="4" cy="4" r="4" transform="matrix(-1 0 0 1 139 604)" fill="#AA296A"/>
<circle cx="4" cy="4" r="4" transform="matrix(-1 0 0 1 152 517)" fill="#AA296A"/>
<circle cx="4" cy="4" r="4" transform="matrix(-1 0 0 1 227 546)" fill="#AA296A"/>
<path d="M598 12H404.197C404.071 12 403.95 11.9498 403.861 11.8605L374.139 -17.8605C374.05 -17.9498 373.929 -18 373.803 -18H271" stroke="#FF0077" stroke-width="0.952381" stroke-linecap="round"/>
<path d="M598 73H531.697C531.571 73 531.45 72.9498 531.361 72.8605L512.139 53.6395C512.05 53.5502 511.929 53.5 511.803 53.5H460.197C460.071 53.5 459.95 53.5502 459.861 53.6395L416.139 97.3605C416.05 97.4498 415.929 97.5 415.803 97.5H165" stroke="#FF0077" stroke-width="0.952381" stroke-linecap="round"/>
<circle cx="4" cy="4" r="4" transform="matrix(-1 0 0 1 169 93)" fill="#FF0077"/>
<path d="M598 631.5H190.5" stroke="#FF0077" stroke-width="0.952381" stroke-linecap="round"/>
<circle cx="4" cy="4" r="4" transform="matrix(-1 0 0 1 195 627)" fill="#FF0077"/>
<path d="M598 590H421.697C421.571 590 421.45 589.95 421.361 589.861L369.639 538.139C369.55 538.05 369.429 538 369.303 538H311.5M598 528H447.197C447.071 528 446.95 528.05 446.861 528.139L426.139 548.861C426.05 548.95 425.929 549 425.803 549H402.197C402.071 549 401.95 548.95 401.861 548.861L369.639 516.639C369.55 516.55 369.429 516.5 369.303 516.5H167.5M598 454.5H421.697C421.571 454.5 421.45 454.55 421.361 454.639L389.639 486.361C389.55 486.45 389.429 486.5 389.303 486.5H167.5" stroke="#FF0077" stroke-width="0.952381" stroke-linecap="round"/>
<circle cx="4" cy="4" r="4" transform="matrix(-1 0 0 1 315 534)" fill="#FF0077"/>
<circle cx="4" cy="4" r="4" transform="matrix(-1 0 0 1 171 482)" fill="#FF0077"/>
<circle cx="4" cy="4" r="4" transform="matrix(-1 0 0 1 171 512)" fill="#FF0077"/>
</g>
<defs>
<linearGradient id="paint0_linear_255_1628" x1="384" y1="309" x2="598" y2="309" gradientUnits="userSpaceOnUse">
<stop stop-color="#FF0071"/>
<stop offset="1" stop-color="#FF0071" stop-opacity="0"/>
</linearGradient>
</defs>
</svg>
