<svg width="598" height="678" viewBox="0 0 598 678" fill="none" xmlns="http://www.w3.org/2000/svg">
<g opacity="0.3">
<path d="M0 187.5H123.303C123.429 187.5 123.55 187.55 123.639 187.639L154.361 218.361C154.45 218.45 154.571 218.5 154.697 218.5H324.803C324.929 218.5 325.05 218.55 325.139 218.639L347.361 240.861C347.45 240.95 347.571 241 347.697 241H440.303C440.429 241 440.55 240.95 440.639 240.861L462.861 218.639C462.95 218.55 463.071 218.5 463.197 218.5H540M495 265H314.197C314.071 265 313.95 265.05 313.861 265.139L267.139 311.861C267.05 311.95 266.929 312 266.803 312H229.697C229.571 312 229.45 311.95 229.361 311.861L203.139 285.639C203.05 285.55 202.929 285.5 202.803 285.5H0M0 326H193.303C193.429 326 193.55 326.05 193.639 326.139L229.361 361.861C229.45 361.95 229.571 362 229.697 362H302.303C302.429 362 302.55 361.95 302.639 361.861L352.361 312.139C352.45 312.05 352.571 312 352.697 312H494.803C494.929 312 495.05 312.05 495.139 312.139L526.861 343.861C526.95 343.95 527.071 344 527.197 344H594M440.5 371.5H382.697C382.571 371.5 382.45 371.55 382.361 371.639L333.639 420.361C333.55 420.45 333.429 420.5 333.303 420.5H260M456.5 344H365.197C365.071 344 364.95 344.05 364.861 344.139L314.139 394.861C314.05 394.95 313.929 395 313.803 395H203.197C203.071 395 202.95 394.95 202.861 394.861L162.639 354.639C162.55 354.55 162.429 354.5 162.303 354.5H0M0 139.5H172.803C172.929 139.5 173.05 139.55 173.139 139.639L199.361 165.861C199.45 165.95 199.571 166 199.697 166H365M463 107H234.197C234.071 107 233.95 107.05 233.861 107.139L214.639 126.361C214.55 126.45 214.429 126.5 214.303 126.5H0M0 107H193.303C193.429 107 193.55 106.95 193.639 106.861L229.361 71.1395C229.45 71.0502 229.571 71 229.697 71H394M440.5 50H222.197C222.071 50 221.95 50.0502 221.861 50.1395L193.639 78.3605C193.55 78.4498 193.429 78.5 193.303 78.5H0M118 50H0M0 703H176.303C176.429 703 176.55 702.95 176.639 702.861L234.361 645.139C234.45 645.05 234.571 645 234.697 645H375M448 616H229.697C229.571 616 229.45 616.05 229.361 616.139L176.639 668.861C176.55 668.95 176.429 669 176.303 669H0M0 727H400M260 703H463M289 669H506.5M389.5 593H211.197C211.071 593 210.95 593.05 210.861 593.139L159 645M500 492H375.197C375.071 492 374.95 492.05 374.861 492.139L325.139 541.861C325.05 541.95 324.929 542 324.803 542H199.697C199.571 542 199.45 542.05 199.361 542.139L154.639 586.861C154.55 586.95 154.429 587 154.303 587H0M540 530H389.697C389.571 530 389.45 530.05 389.361 530.139L352.639 566.861C352.55 566.95 352.429 567 352.303 567H211.197C211.071 567 210.95 567.05 210.861 567.139L154.639 623.361C154.55 623.45 154.429 623.5 154.303 623.5H0M0 492H149.803C149.929 492 150.05 492.05 150.139 492.139L176.361 518.361C176.45 518.45 176.571 518.5 176.697 518.5H245M333.5 485.5H193.697C193.571 485.5 193.45 485.45 193.361 485.361L168.139 460.139C168.05 460.05 167.929 460 167.803 460H0M430 460H211M0 444H364.803C364.929 444 365.05 443.95 365.139 443.861L404.361 404.639C404.45 404.55 404.571 404.5 404.697 404.5H495M0 384.5H63.8028C63.9291 384.5 64.0502 384.55 64.1395 384.639L89.8605 410.361C89.9498 410.45 90.071 410.5 90.1972 410.5H159" stroke="url(#paint0_linear_255_1605)" stroke-opacity="0.2" stroke-width="0.952381" stroke-linecap="round"/>
<circle cx="462" cy="11" r="4" fill="#AA296A"/>
<circle cx="365" cy="71" r="4" fill="#AA296A"/>
<circle cx="539" cy="123" r="4" fill="#AA296A"/>
<circle cx="494" cy="169" r="4" fill="#AA296A"/>
<circle cx="594" cy="249" r="4" fill="#AA296A"/>
<circle cx="506" cy="574" r="4" fill="#AA296A"/>
<circle cx="463" cy="608" r="4" fill="#AA296A"/>
<circle cx="450" cy="521" r="4" fill="#AA296A"/>
<circle cx="375" cy="550" r="4" fill="#AA296A"/>
<path d="M0 12H193.803C193.929 12 194.05 11.9498 194.139 11.8605L223.861 -17.8605C223.95 -17.9498 224.071 -18 224.197 -18H327" stroke="#FF0077" stroke-width="0.952381" stroke-linecap="round"/>
<path d="M0 73H66.3028C66.4291 73 66.5502 72.9498 66.6395 72.8605L85.8605 53.6395C85.9498 53.5502 86.071 53.5 86.1972 53.5H137.803C137.929 53.5 138.05 53.5502 138.139 53.6395L181.861 97.3605C181.95 97.4498 182.071 97.5 182.197 97.5H433" stroke="#FF0077" stroke-width="0.952381" stroke-linecap="round"/>
<circle cx="433" cy="97" r="4" fill="#FF0077"/>
<path d="M0 631.5H407.5" stroke="#FF0077" stroke-width="0.952381" stroke-linecap="round"/>
<circle cx="407" cy="631" r="4" fill="#FF0077"/>
<path d="M0 590H176.303C176.429 590 176.55 589.95 176.639 589.861L228.361 538.139C228.45 538.05 228.571 538 228.697 538H286.5M0 528H150.803C150.929 528 151.05 528.05 151.139 528.139L171.861 548.861C171.95 548.95 172.071 549 172.197 549H195.803C195.929 549 196.05 548.95 196.139 548.861L228.361 516.639C228.45 516.55 228.571 516.5 228.697 516.5H430.5M0 454.5H176.303C176.429 454.5 176.55 454.55 176.639 454.639L208.361 486.361C208.45 486.45 208.571 486.5 208.697 486.5H430.5" stroke="#FF0077" stroke-width="0.952381" stroke-linecap="round"/>
<circle cx="287" cy="538" r="4" fill="#FF0077"/>
<circle cx="431" cy="486" r="4" fill="#FF0077"/>
<circle cx="431" cy="516" r="4" fill="#FF0077"/>
</g>
<defs>
<linearGradient id="paint0_linear_255_1605" x1="214" y1="309" x2="-3.14939e-06" y2="309" gradientUnits="userSpaceOnUse">
<stop stop-color="#FF0071"/>
<stop offset="1" stop-color="#FF0071" stop-opacity="0"/>
</linearGradient>
</defs>
</svg>
