<svg width="24" height="24" viewBox="0 0 24 24" fill="none" xmlns="http://www.w3.org/2000/svg">
<path fill-rule="evenodd" clip-rule="evenodd" d="M21 12C21 16.9706 16.9706 21 12 21C7.02945 21 3 16.9706 3 12C3 7.02945 7.02945 3 12 3C16.9706 3 21 7.02945 21 12ZM12.7633 6.41279C12.7633 6.13665 12.5394 5.91279 12.2633 5.91279C11.9871 5.91279 11.7633 6.13665 11.7633 6.41279V7.87768C10.6654 8.00464 9.81311 8.93746 9.81311 10.0694C9.81311 11.2879 10.8009 12.2757 12.0195 12.2757H12.2633C13.0642 12.2757 13.7134 12.925 13.7134 13.7259C13.7134 14.5268 13.0642 15.1761 12.2633 15.1761H10.3131C10.037 15.1761 9.81311 15.3999 9.81311 15.6761C9.81311 15.9522 10.037 16.1761 10.3131 16.1761H11.7633V17.6262C11.7633 17.9024 11.9871 18.1262 12.2633 18.1262C12.5394 18.1262 12.7633 17.9024 12.7633 17.6262V16.125C13.8767 15.8942 14.7134 14.9078 14.7134 13.7259C14.7134 12.3727 13.6165 11.2757 12.2633 11.2757H12.0195C11.3532 11.2757 10.8131 10.7356 10.8131 10.0694C10.8131 9.40308 11.3532 8.86296 12.0195 8.86296H12.2633H14.2134C14.4896 8.86296 14.7134 8.6391 14.7134 8.36296C14.7134 8.08682 14.4896 7.86296 14.2134 7.86296H12.7633V6.41279Z" fill="#5B6267"/>
</svg>
