<svg width="32" height="32" viewBox="0 0 32 32" fill="none" xmlns="http://www.w3.org/2000/svg">
<path d="M26 19.9405C26 22.7305 23.76 24.9905 20.97 25.0005H20.96H11.05C8.27 25.0005 6 22.7505 6 19.9605V19.9505C6 19.9505 6.006 15.5245 6.014 13.2985C6.015 12.8805 6.495 12.6465 6.822 12.9065C9.198 14.7915 13.447 18.2285 13.5 18.2735C14.21 18.8425 15.11 19.1635 16.03 19.1635C16.95 19.1635 17.85 18.8425 18.56 18.2625C18.613 18.2275 22.767 14.8935 25.179 12.9775C25.507 12.7165 25.989 12.9505 25.99 13.3675C26 15.5765 26 19.9405 26 19.9405Z" fill="white"/>
<path d="M25.4761 9.674C24.6101 8.042 22.9061 7 21.0301 7H11.0501C9.1741 7 7.4701 8.042 6.6041 9.674C6.4101 10.039 6.5021 10.494 6.8251 10.752L14.2501 16.691C14.7701 17.111 15.4001 17.32 16.0301 17.32C16.0341 17.32 16.0371 17.32 16.0401 17.32C16.0431 17.32 16.0471 17.32 16.0501 17.32C16.6801 17.32 17.3101 17.111 17.8301 16.691L25.2551 10.752C25.5781 10.494 25.6701 10.039 25.4761 9.674Z" fill="#AB6685"/>
</svg>
