<svg width="32" height="32" viewBox="0 0 32 32" fill="none" xmlns="http://www.w3.org/2000/svg">
<path d="M15.9951 11.373C14.7687 11.373 13.5926 11.8602 12.7254 12.7274C11.8583 13.5946 11.3711 14.7707 11.3711 15.997C11.3711 17.2234 11.8583 18.3995 12.7254 19.2667C13.5926 20.1339 14.7687 20.621 15.9951 20.621C17.2215 20.621 18.3976 20.1339 19.2648 19.2667C20.1319 18.3995 20.6191 17.2234 20.6191 15.997C20.6191 14.7707 20.1319 13.5946 19.2648 12.7274C18.3976 11.8602 17.2215 11.373 15.9951 11.373ZM15.9951 19C15.1984 19 14.4343 18.6836 13.8709 18.1202C13.3076 17.5568 12.9911 16.7928 12.9911 15.996C12.9911 15.1993 13.3076 14.4353 13.8709 13.8719C14.4343 13.3085 15.1984 12.992 15.9951 12.992C16.7918 12.992 17.5559 13.3085 18.1192 13.8719C18.6826 14.4353 18.9991 15.1993 18.9991 15.996C18.9991 16.7928 18.6826 17.5568 18.1192 18.1202C17.5559 18.6836 16.7918 19 15.9951 19Z" fill="white"/>
<path d="M20.8007 12.281C21.396 12.281 21.8787 11.7984 21.8787 11.203C21.8787 10.6076 21.396 10.125 20.8007 10.125C20.2053 10.125 19.7227 10.6076 19.7227 11.203C19.7227 11.7984 20.2053 12.281 20.8007 12.281Z" fill="white"/>
<path d="M24.531 10.106C24.2995 9.50818 23.9457 8.96528 23.4923 8.51206C23.0389 8.05884 22.4959 7.70527 21.898 7.474C21.1983 7.21136 20.4592 7.06934 19.712 7.054C18.749 7.012 18.444 7 16.002 7C13.56 7 13.247 7 12.292 7.054C11.5454 7.06856 10.8068 7.2106 10.108 7.474C9.50994 7.705 8.96676 8.05847 8.51333 8.51173C8.0599 8.96499 7.70623 9.50802 7.475 10.106C7.2123 10.8056 7.07061 11.5448 7.056 12.292C7.013 13.254 7 13.559 7 16.002C7 18.444 7 18.755 7.056 19.712C7.071 20.46 7.212 21.198 7.475 21.899C7.70688 22.4968 8.0609 23.0396 8.51444 23.4928C8.96798 23.946 9.51106 24.2996 10.109 24.531C10.8064 24.8042 11.5454 24.9564 12.294 24.981C13.257 25.023 13.562 25.036 16.004 25.036C18.446 25.036 18.759 25.036 19.714 24.981C20.4611 24.9658 21.2002 24.8241 21.9 24.562C22.4978 24.3302 23.0406 23.9763 23.494 23.523C23.9473 23.0696 24.3012 22.5268 24.533 21.929C24.796 21.229 24.937 20.491 24.952 19.743C24.995 18.781 25.008 18.476 25.008 16.033C25.008 13.59 25.008 13.28 24.952 12.323C24.9404 11.5653 24.7979 10.8152 24.531 10.106ZM23.313 19.638C23.3066 20.2143 23.2014 20.7852 23.002 21.326C22.8518 21.7149 22.6219 22.068 22.3271 22.3627C22.0322 22.6574 21.679 22.8871 21.29 23.037C20.7552 23.2354 20.1904 23.3406 19.62 23.348C18.67 23.392 18.402 23.403 15.966 23.403C13.528 23.403 13.279 23.403 12.311 23.348C11.7409 23.341 11.1763 23.2358 10.642 23.037C10.2517 22.888 9.897 22.6587 9.60089 22.364C9.30478 22.0692 9.07384 21.7156 8.923 21.326C8.72645 20.791 8.62131 20.2268 8.612 19.657C8.569 18.707 8.559 18.439 8.559 16.003C8.559 13.566 8.559 13.317 8.612 12.348C8.61846 11.772 8.72366 11.2014 8.923 10.661C9.228 9.872 9.853 9.251 10.642 8.949C11.1766 8.75114 11.741 8.64596 12.311 8.638C13.262 8.595 13.529 8.583 15.966 8.583C18.403 8.583 18.653 8.583 19.62 8.638C20.1904 8.64486 20.7554 8.75007 21.29 8.949C21.6789 9.09927 22.0321 9.3292 22.327 9.62403C22.6218 9.91886 22.8517 10.2721 23.002 10.661C23.1986 11.1959 23.3037 11.7602 23.313 12.33C23.356 13.281 23.367 13.548 23.367 15.985C23.367 18.421 23.367 18.683 23.324 19.639H23.313V19.638Z" fill="white"/>
</svg>
