<svg width="32" height="32" viewBox="0 0 32 32" fill="none" xmlns="http://www.w3.org/2000/svg">
<path fill-rule="evenodd" clip-rule="evenodd" d="M12.5316 6.93677C14.7165 5.66727 17.402 5.68946 19.5664 6.99489C21.7095 8.32691 23.012 10.7042 22.9998 13.2614C22.95 15.8019 21.5533 18.19 19.8075 20.0361C18.7998 21.1064 17.6726 22.0528 16.4488 22.856C16.3228 22.9289 16.1848 22.9777 16.0415 23C15.9036 22.9941 15.7693 22.9534 15.6508 22.8814C13.7824 21.6746 12.1433 20.134 10.8123 18.334C9.69859 16.8314 9.06584 15.016 9 13.1344C8.99856 10.5722 10.3468 8.20627 12.5316 6.93677ZM13.7945 14.1948C14.162 15.1008 15.0295 15.6918 15.992 15.6918C16.6225 15.6964 17.2285 15.4438 17.6752 14.9905C18.1218 14.5371 18.3718 13.9206 18.3696 13.2784C18.373 12.298 17.7958 11.4123 16.9076 11.0348C16.0194 10.6572 14.9954 10.8623 14.3137 11.5543C13.6319 12.2463 13.427 13.2887 13.7945 14.1948Z" fill="white"/>
<ellipse opacity="0.4" cx="16" cy="25" rx="5" ry="1" fill="white"/>
</svg>
