<svg width="32" height="32" viewBox="0 0 32 32" fill="none" xmlns="http://www.w3.org/2000/svg">
<path fill-rule="evenodd" clip-rule="evenodd" d="M13.429 12.9688H17.143V14.8188C17.678 13.7548 19.05 12.7988 21.111 12.7988C25.062 12.7988 26 14.9168 26 18.8028V25.9998H22V19.6878C22 17.4748 21.465 16.2268 20.103 16.2268C18.214 16.2268 17.429 17.5718 17.429 19.6868V25.9998H13.429V12.9688ZM6.57 25.8298H10.57V12.7988H6.57V25.8298ZM11.143 8.54976C11.1431 8.88503 11.0767 9.21699 10.9474 9.52634C10.8181 9.8357 10.6287 10.1163 10.39 10.3518C9.9064 10.8324 9.25181 11.1014 8.57 11.0998C7.88939 11.0993 7.23631 10.831 6.752 10.3528C6.51421 10.1165 6.32539 9.83558 6.19634 9.52619C6.0673 9.2168 6.00058 8.88498 6 8.54976C6 7.87276 6.27 7.22476 6.753 6.74676C7.23689 6.26791 7.89024 5.99946 8.571 5.99976C9.253 5.99976 9.907 6.26876 10.39 6.74676C10.872 7.22476 11.143 7.87276 11.143 8.54976Z" fill="white"/>
</svg>
