<svg width="32" height="32" viewBox="0 0 32 32" fill="none" xmlns="http://www.w3.org/2000/svg">
<g clip-path="url(#clip0_233_1803)">
<path d="M13.9405 18.58L19.3405 15.8L13.9405 12.98V18.58ZM16.0005 8.95996C20.2005 8.95996 23.0005 9.15996 23.0005 9.15996C23.3805 9.21996 24.2405 9.21996 25.0005 10.02C25.0005 10.02 25.6205 10.62 25.8005 12C26.0205 13.62 26.0005 15.24 26.0005 15.24V16.76C26.0005 16.76 26.0205 18.38 25.8005 20C25.6205 21.36 25.0005 21.98 25.0005 21.98C24.2405 22.78 23.3805 22.78 23.0005 22.82C23.0005 22.82 20.2005 23.04 16.0005 23.04C10.8005 22.98 9.20047 22.82 9.20047 22.82C8.76047 22.74 7.76047 22.78 7.00047 21.98C7.00047 21.98 6.38047 21.36 6.20047 20C5.98047 18.38 6.00047 16.76 6.00047 16.76V15.24C6.00047 15.24 5.98047 13.62 6.20047 12C6.38047 10.62 7.00047 10.02 7.00047 10.02C7.76047 9.21996 8.62047 9.21996 9.00047 9.15996C9.00047 9.15996 11.8005 8.95996 16.0005 8.95996Z" fill="white"/>
</g>
<defs>
<clipPath id="clip0_233_1803">
<rect width="20" height="20" fill="white" transform="translate(6 6)"/>
</clipPath>
</defs>
</svg>
